HIERARCHY
ROOT Hips
{
	OFFSET 0.000000 0.000000 0.000000
	CHANNELS 6 Xposition Yposition Zposition Zrotation Yrotation Xrotation 
	JOINT LHipJoint
	{
		OFFSET 0.000000 0.000000 0.000000
		CHANNELS 3 Zrotation Yrotation Xrotation
		JOINT LeftUpLeg
		{
			OFFSET 1.363060 -1.794630 0.839290
			CHANNELS 3 Zrotation Yrotation Xrotation
			JOINT LeftLeg
			{
				OFFSET 2.448110 -6.726130 0.000000
				CHANNELS 3 Zrotation Yrotation Xrotation
				JOINT LeftFoot
				{
					OFFSET 2.562200 -7.039590 0.000000
					CHANNELS 3 Zrotation Yrotation Xrotation
					JOINT LeftToeBase
					{
						OFFSET 0.157640 -0.433110 2.322550
						CHANNELS 3 Zrotation Yrotation Xrotation
						End Site
						{
							OFFSET 0.000000 0.000000 0.000000
						}
					}
				}
			}
		}
	}
	JOINT RHipJoint
	{
		OFFSET 0.000000 0.000000 0.000000
		CHANNELS 3 Zrotation Yrotation Xrotation
		JOINT RightUpLeg
		{
			OFFSET -1.305520 -1.794630 0.839290
			CHANNELS 3 Zrotation Yrotation Xrotation
			JOINT RightLeg
			{
				OFFSET -2.542530 -6.985550 0.000000
				CHANNELS 3 Zrotation Yrotation Xrotation
				JOINT RightFoot
				{
					OFFSET -2.568260 -7.056230 0.000000
					CHANNELS 3 Zrotation Yrotation Xrotation
					JOINT RightToeBase
					{
						OFFSET -0.164730 -0.452590 2.363150
						CHANNELS 3 Zrotation Yrotation Xrotation
						End Site
						{
							OFFSET 0.000000 0.000000 0.000000
						}
					}
				}
			}
		}
	}
}
MOTION
Frames: 11
Frame Time: 0.008333
-1.223323 16.519907 1.566461 13.184819 36.856985 22.338829 -10.128700 4.471965 -2.069512 -6.156780 20.214012 -16.375689 -0.263902 2.438778 47.635659 1.532284 1.428487 28.451503 0.020700 -0.000001 -69.085700 9.193949 -0.458098 3.205223 20.837422 1.873543 -29.031682 2.541949 1.845520 10.395231 -4.965734 -11.774912 -28.757773 -175.391900 -0.000000 -22.600300
-1.117894 16.504563 1.687451 12.380666 35.517746 22.068380 -10.206312 4.309736 -1.950478 -5.892942 19.584946 -18.069504 -0.136454 2.528197 50.309217 1.626708 2.270114 28.234694 0.444600 -0.000000 -64.456000 9.034001 -0.614796 3.288356 21.484993 2.366557 -29.125316 2.725627 1.698290 11.742539 -4.748435 -10.639671 -29.016033 -175.612001 -0.000000 -22.744200
-1.019704 16.493027 1.808397 11.613033 34.082559 21.873008 -10.249011 4.132252 -1.832076 -5.727429 18.817920 -19.807293 -0.007436 2.620939 52.809851 1.723771 3.629064 27.455369 1.136900 -0.000000 -60.027900 8.900977 -0.746212 3.396835 22.027532 2.984728 -29.132857 2.876836 1.570951 12.895487 -4.545537 -9.604712 -29.205450 -175.830599 -0.000000 -22.964100
-0.928909 16.485507 1.929722 10.901274 32.576863 21.752740 -10.256897 3.940911 -1.708040 -5.638150 17.890953 -21.551522 0.122752 2.710631 55.081207 1.827421 5.382511 26.177444 1.994600 0.000000 -55.916000 8.799847 -0.845694 3.523426 22.446453 3.706857 -29.014372 2.990952 1.472212 13.798971 -4.366038 -8.716576 -29.322880 -176.032100 0.000000 -23.283100
-0.845409 16.482061 2.051877 10.260948 31.028993 21.701927 -10.231060 3.737669 -1.569135 -5.599213 16.781134 -23.259735 0.250443 2.788675 57.060434 1.943133 7.396983 24.515228 2.908101 -0.000000 -52.465500 8.733519 -0.909724 3.657937 22.732765 4.496516 -28.741130 3.068134 1.408080 14.417193 -4.212527 -7.991050 -29.368781 -176.208500 -0.000000 -23.710400
-0.768696 16.482620 2.175295 9.699549 29.467710 21.711276 -10.174540 3.525716 -1.407152 -5.578670 15.478734 -24.900106 0.370115 2.848780 58.704860 2.071033 9.516372 22.553333 3.764600 0.000000 -49.522700 8.701560 -0.938696 3.791697 22.888466 5.315924 -28.299076 3.112150 1.382096 14.729383 -4.082801 -7.420451 -29.342491 -176.358700 0.000000 -24.239700
-0.697974 16.487042 2.300465 9.221504 27.918449 21.772125 -10.090797 3.308658 -1.213491 -5.548098 13.979030 -26.446079 0.475947 2.884994 59.974045 2.210065 11.606377 20.408025 4.482400 0.000000 -47.202100 8.702438 -0.935755 3.916662 22.921679 6.126456 -27.687805 3.128848 1.394535 14.733386 -3.969742 -6.974891 -29.240423 -176.489600 -0.000000 -24.845100
-0.632309 16.494940 2.427826 8.826194 26.401739 21.874902 -9.984403 3.091051 -0.982758 -5.481675 12.294682 -27.884811 0.563106 2.895039 60.852551 2.353012 13.537830 18.151020 4.999600 0.000000 -45.323800 8.733045 -0.906942 4.027686 22.844999 6.894561 -26.919157 3.125185 1.442729 14.443406 -3.863076 -6.609939 -29.055843 -176.612900 0.000000 -25.484500
-0.570661 16.505827 2.557775 8.510584 24.930906 22.011785 -9.859698 2.877422 -0.712093 -5.361515 10.448979 -29.215236 0.628148 2.878778 61.339835 2.490031 15.206111 15.843192 5.283601 -0.000000 -43.664900 8.790067 -0.859764 4.121801 22.673218 7.592666 -26.015965 3.108296 1.521397 13.888989 -3.750440 -6.272100 -28.778787 -176.744000 0.000001 -26.107200
-0.512086 16.519218 2.690651 8.270217 23.511315 22.178998 -9.719914 2.670832 -0.399521 -5.178871 8.467113 -30.444403 0.669645 2.835888 61.437358 2.614209 16.558668 13.591975 5.352600 -0.000000 -42.522400 8.870776 -0.801633 4.197354 22.420004 8.199225 -25.010548 3.084760 1.623507 13.111835 -3.619089 -5.905598 -28.398302 -176.898500 0.000000 -26.666600
-0.455636 16.534398 2.826573 8.096246 22.139758 22.370382 -9.569037 2.474412 -0.049386 -4.928822 6.398053 -31.596144 0.687172 2.770916 61.182138 2.714388 17.544560 11.405327 5.218300 -0.000000 -41.596900 8.971235 -0.740866 4.255755 22.101499 8.702005 -23.937548 3.060519 1.740771 12.163818 -3.458631 -5.461874 -27.907645 -177.088400 -0.000000 -27.132600
